<svg xmlns="http://www.w3.org/2000/svg" version="1.1" xmlns:xlink="http://www.w3.org/1999/xlink" xmlns:svgjs="http://svgjs.dev/svgjs" viewBox="0 0 1422 800"><defs><filter id="uuunion-blur" x="-100%" y="-100%" width="400%" height="400%" color-interpolation-filters="sRGB">
        <feGaussianBlur in="SourceGraphic" stdDeviation="7.5 0" result="blur"></feGaussianBlur>
        <feDropShadow stdDeviation="12.307692307692308" in="blur" dx="10" dy="10" flood-color="hsl(332, 87%, 70%)" flood-opacity="0.25" x="0%" y="0%" width="100%" height="100%"></feDropShadow>
      </filter><filter id="uuunion-blur2" x="-100%" y="-100%" width="400%" height="400%" color-interpolation-filters="sRGB">
        <feGaussianBlur in="SourceGraphic" stdDeviation="7.5 0" result="blur"></feGaussianBlur>
        <feDropShadow stdDeviation="12.307692307692308" in="blur" dx="-10" dy="-10" flood-color="hsl(332, 87%, 70%)" flood-opacity="0.25" x="0%" y="0%" width="100%" height="100%"></feDropShadow>
      </filter><linearGradient gradientTransform="rotate(0, 0.5, 0.5)" x1="50%" y1="0%" x2="50%" y2="100%" id="uuunion-grad"><stop stop-color="hsl(184, 74%, 44%)" offset="10%"></stop><stop stop-color="hsl(332, 87%, 70%)" offset="90%"></stop></linearGradient><linearGradient gradientTransform="rotate(135, 0.5, 0.5)" x1="50%" y1="0%" x2="50%" y2="100%" id="uuunion-grad2"><stop stop-color="hsl(184, 74%, 44%)" offset="25%"></stop><stop stop-color="hsl(332, 87%, 70%)" offset="100%"></stop></linearGradient><linearGradient gradientTransform="rotate(333, 0.5, 0.5)" x1="50%" y1="0%" x2="50%" y2="100%" id="uuunion-grad3"><stop stop-color="hsl(184, 74%, 44%)" offset="0%"></stop><stop stop-color="hsl(332, 87%, 70%)" offset="75%"></stop></linearGradient></defs><path d="M-131.29 -87.26Q-118.31 -88.52 -105.33 -88.75 -92.35 -87.91 -79.36 -86.11 -66.38 -83.56 -53.4 -80.58 -40.42 -77.52 -27.44 -74.77 -14.46 -72.66 -1.48 -71.43 11.49 -71.26 24.48 -72.14 37.46 -73.98 50.44 -76.56 63.42 -79.55 76.4 -82.6 89.38 -85.33 102.36 -87.41 115.34 -88.59 128.32 -88.72 141.31 -87.79 154.29 -85.9 167.27 -83.3 180.25 -80.3 193.23 -77.26 206.21 -74.55 219.19 -72.51 232.17 -71.37 245.16 -71.29 258.14 -72.27 271.12 -74.19 284.1 -76.82 297.08 -79.83 310.06 -82.86 323.04 -85.55 336.02 -87.56 349 -88.64 361.99 -88.68 374.97 -87.65 387.95 -85.7 400.93 -83.04 413.91 -80.02 426.89 -77 439.87 -74.34 452.85 -72.36 465.84 -71.32 478.82 -71.34 491.8 -72.41 504.78 -74.4 517.76 -77.08 530.74 -80.11 543.72 -83.12 556.7 -85.76 569.69 -87.69 582.67 -88.69 595.65 -88.63 608.63 -87.51 621.61 -85.48 634.59 -82.78 647.57 -79.74 660.55 -76.74 673.54 -74.13 686.52 -72.23 699.5 -71.28 712.48 -71.39 725.46 -72.55 738.44 -74.62 751.42 -77.34 764.4 -80.39 777.38 -83.38 790.37 -85.97 803.35 -87.82 816.33 -88.73 829.31 -88.57 842.29 -87.36 855.27 -85.26 868.25 -82.52 881.23 -79.47 894.22 -76.48 907.2 -73.92 920.18 -72.1 933.16 -71.25 946.14 -71.45 959.12 -72.7 972.1 -74.84 985.08 -77.61 998.07 -80.66 1011.05 -83.64 1024.03 -86.17 1037.01 -87.95 1049.99 -88.76 1062.97 -88.5 1075.95 -87.21 1088.93 -85.04 1101.92 -82.25 1114.9 -79.19 1127.88 -76.23 1140.86 -73.72 1153.84 -71.98 1166.82 -71.22 1179.8 -71.53 1192.79 -72.86 1205.77 -75.07 1218.75 -77.88 1231.73 -80.94 1244.71 -83.89 1257.69 -86.36 1270.67 -88.06 1283.65 -88.78 1296.64 -88.43 1309.62 -87.04 1322.6 -84.81 1335.58 -81.98 1348.56 -78.91 1361.54 -75.98 1374.52 -73.53 1387.5 -71.87 1400.49 -71.2 1413.47 -71.61 1426.45 -73.03 1439.43 -75.3 1452.41 -78.15 1465.39 -81.22 1478.37 -84.14 1491.35 -86.55 1504.34 -88.17 1517.32 -88.79 1530.3 -88.34 1531.78 -73.55 1536.04 -58.77 1542.72 -43.98 1551.24 -29.2 1560.88 -14.41 1570.8 0.37 1580.15 15.15 1588.14 29.94 1594.07 44.73 1597.43 59.51 1597.94 74.3 1595.55 89.09 1590.46 103.87 1583.13 118.66 1574.16 133.45 1564.34 148.23 1554.51 163.02 1545.51 177.81 1538.11 192.59 1532.96 207.38 1530.48 222.17 1530.91 236.95 1534.19 251.74 1540.05 266.53 1547.98 281.31 1557.3 296.1 1567.22 310.89 1576.88 325.67 1585.45 340.46 1592.19 355.25 1596.53 370.03 1598.09 384.82 1596.74 399.61 1592.6 414.39 1586.01 429.18 1577.56 443.97 1567.95 458.75 1558.02 473.54 1548.63 488.33 1540.57 503.11 1534.54 517.9 1531.05 532.69 1530.41 547.47 1532.68 562.26 1537.65 577.05 1544.9 591.83 1553.81 606.62 1563.61 621.41 1573.46 636.19 1582.51 650.98 1589.99 665.76 1595.26 680.55 1597.86 695.34 1597.56 710.12 1594.41 724.91 1588.65 739.7 1580.8 754.48 1571.52 769.27 1561.61 784.06 1551.92 798.84 1543.29 813.63 1536.45 828.42 1532 843.2 1530.31 857.99 1517.33 856.8 1504.35 858.44 1491.36 862.71 1478.38 869.08 1465.4 876.78 1452.42 884.87 1439.44 892.37 1426.46 898.36 1413.48 902.11 1400.49 903.17 1387.51 901.41 1374.53 897.04 1361.55 890.59 1348.57 882.85 1335.59 874.76 1322.61 867.31 1309.62 861.41 1296.64 857.77 1283.66 856.84 1270.68 858.73 1257.7 863.2 1244.72 869.73 1231.74 877.51 1218.75 885.58 1205.77 892.98 1192.79 898.8 1179.81 902.32 1166.83 903.13 1153.85 901.12 1140.87 896.53 1127.89 889.93 1114.9 882.12 1101.92 874.05 1088.94 866.71 1075.96 860.98 1062.98 857.57 1050 856.89 1037.02 859.03 1024.03 863.72 1011.05 870.39 998.07 878.24 985.09 886.29 972.11 893.58 959.13 899.22 946.15 902.51 933.16 903.06 920.18 900.8 907.2 896.01 894.22 889.26 881.24 881.39 868.26 873.35 855.28 866.11 842.3 860.57 829.31 857.39 816.33 856.97 803.35 859.35 790.37 864.25 777.39 871.06 764.41 878.97 751.43 886.99 738.44 894.17 725.46 899.62 712.48 902.68 699.5 902.97 686.52 900.47 673.54 895.47 660.56 888.59 647.58 880.66 634.59 872.65 621.61 865.53 608.63 860.18 595.65 857.24 582.67 857.07 569.69 859.7 556.71 864.8 543.72 871.74 530.74 879.7 517.76 887.69 504.78 894.74 491.8 900 478.82 902.82 465.84 902.86 452.86 900.11 439.87 894.92 426.89 887.9 413.91 879.92 400.93 871.96 387.95 864.97 374.97 859.81 361.99 857.11 349.01 857.2 336.02 860.06 323.04 865.36 310.06 872.43 297.08 880.43 284.1 888.38 271.12 895.3 258.14 900.36 245.15 902.94 232.17 902.72 219.19 899.74 206.21 894.35 193.23 887.21 180.25 879.19 167.27 871.27 154.29 864.42 141.3 859.46 128.32 857 115.34 857.34 102.36 860.45 89.38 865.93 76.4 873.13 63.42 881.16 50.44 889.05 37.45 895.84 24.47 900.7 11.49 903.04 -1.48 902.56 -14.46 899.34 -27.44 893.77 -40.42 886.51 -53.4 878.46 -66.39 870.6 -79.37 863.88 -92.35 859.13 -105.33 856.91 -118.31 857.51 -131.29 860.85 -131.83 846.04 -133.27 831.22 -135.46 816.41 -138.24 801.59 -141.35 786.78 -144.54 771.96 -147.52 757.15 -150.05 742.34 -151.9 727.52 -152.91 712.71 -153.01 697.89 -152.17 683.08 -150.48 668.26 -148.07 653.45 -145.16 638.64 -142 623.82 -138.85 609.01 -135.98 594.19 -133.65 579.38 -132.05 564.56 -131.33 549.75 -131.53 534.94 -132.65 520.12 -134.59 505.31 -137.18 490.49 -140.2 475.68 -143.39 460.86 -146.48 446.05 -149.2 431.23 -151.31 416.42 -152.65 401.61 -153.08 386.79 -152.58 371.98 -151.18 357.16 -149.02 342.35 -146.26 327.53 -143.16 312.72 -139.97 297.91 -136.97 283.09 -134.42 268.28 -132.54 253.46 -131.48 238.65 -131.35 223.83 -132.14 209.02 -133.8 194.21 -136.18 179.39 -139.07 164.58 -142.23 149.76 -145.39 134.95 -148.27 120.13 -150.63 105.32 -152.26 90.51 -153.03 75.69 -152.87 60.88 -151.79 46.06 -149.88 31.25 -147.31 16.43 -144.31 1.62 -141.12 -13.19 -138.02 -28 -135.28 -42.81 -133.13 -57.63 -131.76 -72.44 -131.29 -87.26" fill="url(#uuunion-grad)"></path><path d="M-131.3 -87.26Q-131.77 -72.44 -133.14 -57.63 -135.29 -42.81 -138.03 -28 -141.13 -13.18 -144.32 1.62 -147.33 16.44 -149.89 31.25 -151.8 46.06 -152.88 60.88 -153.04 75.69 -152.27 90.51 -150.64 105.32 -148.28 120.14 -145.4 134.95 -142.24 149.76 -139.08 164.58 -136.19 179.39 -133.81 194.21 -132.15 209.02 -131.36 223.84 -131.49 238.65 -132.55 253.46 -134.43 268.28 -136.98 283.09 -139.98 297.91 -143.17 312.72 -146.27 327.54 -149.03 342.35 -151.19 357.17 -148.28 378.52 -134.85 384.14 -125.73 384.08 -116.61 384.88 -107.49 386.52 -98.37 388.88 -89.25 391.85 -80.12 395.26 -71 398.93 -61.88 402.66 -52.76 406.25 -43.64 409.49 -34.52 412.22 -25.4 414.28 -8.16 415.87 -5.12 415.97 6.28 411.89 17.7 406.54 29.15 400.12 40.61 392.93 52.08 385.3 63.56 377.61 75.05 370.26 86.54 363.6 98.03 357.92 109.51 353.44 120.99 350.25 132.45 348.36 143.9 347.66 155.34 347.93 166.75 348.88 178.14 350.16 189.51 351.41 200.85 352.24 212.16 352.33 223.44 351.41 234.69 349.31 245.9 345.94 257.08 341.33 268.22 335.61 279.33 329.02 290.41 321.84 301.45 314.43 312.45 307.15 323.42 300.34 334.35 294.32 345.25 289.32 356.12 285.5 366.97 282.91 377.78 281.49 388.57 281.1 399.33 281.49 410.07 282.36 420.8 283.38 431.51 284.19 442.21 284.46 452.9 283.91 463.58 282.33 474.26 279.59 484.94 275.67 495.62 270.65 506.32 264.68 517.02 258.03 527.74 250.98 538.48 243.88 549.24 237.05 560.03 230.82 570.84 225.43 581.69 221.08 592.57 217.86 603.49 215.76 614.45 214.71 625.46 214.5 636.51 214.9 647.61 215.6 658.76 216.27 669.96 216.59 681.21 216.29 692.52 215.11 703.88 212.91 715.3 209.62 726.78 205.25 738.31 199.92 749.89 193.82 761.54 187.21 773.23 180.38 784.98 173.66 796.78 167.34 808.63 161.68 820.52 156.91 832.46 153.15 844.44 150.44 856.46 148.75 868.51 147.94 880.6 147.81 892.71 148.11 904.85 148.55 917 148.81 929.17 148.62 941.34 147.73 953.52 145.97 965.7 143.21 977.87 139.44 990.03 134.72 1002.18 129.2 1014.3 123.08 1026.4 116.61 1038.46 110.09 1050.48 103.79 1062.46 98 1074.39 92.92 1086.27 88.71 1098.09 85.47 1109.84 83.19 1121.53 81.79 1133.15 81.12 1144.68 80.97 1156.14 81.08 1167.51 81.18 1178.8 80.99 1190 80.27 1201.1 78.83 1212.11 76.52 1223.02 73.28 1233.83 69.14 1244.55 64.18 1255.16 58.57 1265.68 52.52 1276.1 46.28 1286.41 40.12 1296.63 34.29 1306.76 29.02 1316.79 24.48 1326.73 20.79 1336.58 17.99 1346.35 16.03 1356.03 14.82 1365.65 14.19 1375.18 13.92 1384.66 13.76 1394.07 13.48 1403.42 12.82 1412.73 11.58 1422 9.61 1411.85 -8.13 1402.88 -25.88 1396.14 -43.64 1392.42 -61.39 1392.15 -79.14 1395.35 -96.89 1401.66 -114.65 1410.35 -132.4 1398.16 -133.48 1385.97 -135.25 1373.78 -137.5 1361.6 -140.02 1349.41 -142.53 1337.22 -144.78 1325.03 -146.54 1312.84 -147.61 1300.66 -147.88 1288.47 -147.34 1276.28 -146.03 1264.09 -144.1 1251.91 -141.74 1239.72 -139.19 1227.53 -136.73 1215.34 -134.61 1203.16 -133.05 1190.97 -132.21 1178.78 -132.19 1166.59 -132.97 1154.4 -134.49 1142.22 -136.58 1130.03 -139.02 1117.84 -141.57 1105.65 -143.95 1093.47 -145.92 1081.28 -147.28 1069.09 -147.87 1056.9 -147.65 1044.72 -146.63 1032.53 -144.92 1020.34 -142.7 1008.15 -140.19 995.96 -137.67 983.78 -135.39 971.59 -133.58 959.4 -132.45 947.21 -132.1 935.03 -132.57 922.84 -133.81 910.65 -135.7 898.46 -138.04 886.28 -140.57 874.09 -143.05 861.9 -145.21 849.71 -146.83 837.53 -147.74 825.34 -147.84 813.15 -147.12 800.96 -145.66 788.77 -143.62 776.59 -141.19 764.4 -138.64 752.21 -136.24 740.02 -134.22 727.84 -132.8 715.65 -132.14 703.46 -132.29 691.27 -133.24 679.09 -134.9 666.9 -137.08 654.71 -139.57 642.52 -142.11 630.33 -144.42 618.15 -146.27 605.96 -147.47 593.77 -147.89 581.58 -147.49 569.4 -146.31 557.21 -144.47 545.02 -142.17 532.83 -139.64 520.65 -137.15 508.46 -134.95 496.27 -133.28 484.08 -132.3 471.89 -132.13 459.71 -132.78 447.52 -134.17 435.33 -136.18 423.14 -138.58 410.96 -141.13 398.77 -143.56 386.58 -145.62 374.39 -147.09 362.21 -147.83 350.02 -147.75 337.83 -146.86 325.64 -145.26 313.45 -143.11 301.27 -140.64 289.08 -138.1 276.89 -135.76 264.7 -133.86 252.52 -132.59 240.33 -132.1 228.14 -132.43 215.95 -133.54 203.77 -135.33 191.58 -137.6 179.39 -140.13 167.2 -142.63 155.01 -144.87 142.83 -146.59 130.64 -147.63 118.45 -147.88 106.26 -147.3 94.08 -145.97 81.89 -144.01 69.7 -141.63 57.51 -139.09 45.33 -136.64 33.14 -134.53 20.95 -133 8.76 -132.2 -3.42 -132.2 -15.6 -133.02 -27.79 -134.56 -39.98 -136.67 -52.17 -139.13 -64.35 -141.67 -76.54 -144.04 -88.73 -145.99 -100.92 -147.32 -113.1 -147.88 -125.29 -147.62 -140.72 -138.52 -138.89 -116.07 -134.64 -101.67 -131.3 -87.26" fill="url(#uuunion-grad2)" filter="url(#uuunion-blur)"></path><path d="M1421.73 334.23Q1430.62 334.78 1439.5 334.53 1448.39 333.49 1457.28 331.71 1466.16 329.29 1475.05 326.37 1483.93 323.1 1492.82 319.67 1501.7 316.25 1510.59 313.03 1519.47 310.19 1528.36 307.89 1537.24 306.25 1546.13 305.35 1555.02 305.25 1563.9 305.96 1575.32 323.21 1585.45 340.46 1593.09 357.71 1597.37 374.96 1597.78 392.21 1594.27 409.46 1587.26 426.71 1577.56 443.97 1566.3 461.22 1554.79 478.47 1544.38 495.72 1536.28 512.97 1531.44 530.22 1530.41 547.47 1533.33 564.72 1539.84 581.97 1549.19 599.23 1560.29 616.48 1571.85 633.73 1582.51 650.98 1591.04 668.23 1596.44 685.48 1598.08 702.73 1595.77 719.98 1589.77 737.23 1580.8 754.48 1569.89 771.74 1558.31 788.99 1547.43 806.24 1538.49 823.49 1532.56 840.74 1530.31 857.99 1518.4 856.8 1506.49 857.98 1494.59 861.43 1482.68 866.78 1470.77 873.49 1458.86 880.86 1446.96 888.15 1435.05 894.6 1423.14 899.55 1411.24 902.5 1399.33 903.13 1387.42 901.39 1375.51 897.45 1363.61 891.72 1351.7 884.78 1339.79 877.36 1327.89 870.2 1315.98 864.06 1304.07 859.54 1292.16 857.13 1280.26 857.06 1268.35 859.35 1256.44 863.76 1244.53 869.83 1232.63 876.95 1220.72 884.38 1208.81 891.36 1196.91 897.17 1185 901.22 1173.09 903.09 1161.18 902.59 1149.28 899.77 1137.37 894.92 1125.46 888.54 1113.56 881.28 1101.65 873.88 1089.74 867.12 1077.83 861.68 1065.93 858.11 1054.02 856.8 1042.11 857.86 1030.2 861.2 1018.3 866.47 1006.39 873.12 994.48 880.48 982.58 887.79 970.67 894.3 958.76 899.35 946.85 902.4 934.95 903.15 923.04 901.53 911.13 897.7 899.23 892.05 887.32 885.16 875.41 877.74 863.5 870.55 851.6 864.33 839.69 859.73 827.78 857.2 815.87 857.01 803.97 859.18 792.06 863.49 780.15 869.49 768.25 876.57 756.34 884.01 744.43 891.03 732.52 896.91 720.62 901.07 708.71 903.06 696.8 902.68 684.89 899.97 672.99 895.21 661.08 888.89 649.17 881.66 637.27 874.25 625.36 867.44 613.45 861.91 601.54 858.24 589.64 856.81 577.73 857.75 565.82 860.98 553.92 866.16 542.01 872.76 530.1 880.1 518.19 887.43 506.29 894 494.38 899.13 482.47 902.3 470.56 903.17 458.66 901.67 446.75 897.94 434.84 892.37 422.94 885.53 411.03 878.12 399.12 870.9 387.21 864.62 375.31 859.91 363.4 857.27 351.49 856.96 339.59 859.01 327.68 863.22 315.77 869.15 303.86 876.2 291.96 883.63 280.05 890.69 268.14 896.65 256.23 900.9 244.33 903.01 232.42 902.75 220.51 900.16 208.61 895.5 196.7 889.24 184.79 882.04 172.88 874.62 160.98 867.76 149.07 862.16 137.16 858.38 125.26 856.82 113.35 857.65 101.44 860.76 89.53 865.85 77.63 872.4 65.72 879.72 53.81 887.07 41.9 893.7 30 898.91 12.05 897.61 5.57 882.89 4.88 872.74 3.96 862.59 2.85 852.44 1.6 842.29 -0.2 827.07 -0.15 822 11.51 814.48 23.28 804.75 35.15 793.22 47.13 780.45 59.22 767.15 71.43 754.09 83.75 741.98 96.17 731.45 108.7 722.93 121.31 716.66 134.01 712.62 146.78 710.54 159.6 709.97 172.46 710.28 185.35 710.78 198.24 710.72 211.13 709.47 224 706.49 236.83 701.45 249.62 694.25 262.35 684.99 275.02 674.03 287.61 661.88 300.12 649.19 312.55 636.64 324.9 624.91 337.18 614.58 349.37 606.06 361.51 599.59 373.58 595.16 385.61 592.57 397.6 591.4 409.57 591.1 421.54 591.02 433.52 590.51 445.53 588.94 457.58 585.85 469.69 580.89 481.88 573.96 494.17 565.14 506.55 554.74 519.05 543.2 531.68 531.11 544.44 519.09 557.33 507.77 570.36 497.67 583.52 489.19 596.82 482.55 610.23 477.78 623.76 474.7 637.38 472.95 651.09 472.04 664.86 471.38 678.68 470.38 692.51 468.48 706.34 465.23 720.14 460.32 733.88 453.62 747.55 445.21 761.11 435.34 774.54 424.4 787.82 412.91 800.92 401.44 813.83 390.54 823.8 386.35 833.75 382.97 843.7 380.53 853.64 379.13 863.57 378.75 873.48 379.35 883.39 380.79 893.28 382.91 903.17 385.48 913.04 388.26 922.89 390.97 932.74 393.37 942.57 395.22 952.39 396.31 962.19 396.5 971.98 395.69 981.75 393.87 991.51 391.06 1001.25 387.37 1010.98 382.97 1020.69 378.06 1030.39 372.87 1040.07 367.67 1049.73 362.71 1059.37 358.24 1069 354.45 1078.61 351.52 1088.2 349.55 1097.78 348.58 1107.34 348.6 1116.88 349.52 1126.4 351.19 1135.9 353.43 1145.39 356.01 1154.85 358.67 1164.3 361.17 1173.73 363.26 1183.14 364.72 1192.54 365.37 1201.91 365.11 1211.27 363.86 1220.61 361.63 1229.93 358.48 1239.23 354.55 1248.51 349.99 1257.78 345.05 1267.02 339.94 1276.25 334.93 1285.47 330.25 1294.66 326.14 1303.84 322.77 1313 320.29 1322.15 318.76 1331.28 318.2 1340.39 318.58 1349.48 319.77 1358.57 321.62 1367.63 323.92 1376.68 326.45 1385.72 328.96 1394.74 331.2 1403.75 332.94 1412.75 334 1421.73 334.23" fill="url(#uuunion-grad3)" filter="url(#uuunion-blur2)"></path></svg>