<svg xmlns="http://www.w3.org/2000/svg" version="1.1" xmlns:xlink="http://www.w3.org/1999/xlink" xmlns:svgjs="http://svgjs.dev/svgjs" viewBox="0 0 1422 800"><defs><filter id="uuunion-blur" x="-100%" y="-100%" width="400%" height="400%" color-interpolation-filters="sRGB">
        <feGaussianBlur in="SourceGraphic" stdDeviation="7.5 0" result="blur"></feGaussianBlur>
        <feDropShadow stdDeviation="12.307692307692308" in="blur" dx="10" dy="10" flood-color="hsl(331, 90%, 56%)" flood-opacity="0.25" x="0%" y="0%" width="100%" height="100%"></feDropShadow>
      </filter><filter id="uuunion-blur2" x="-100%" y="-100%" width="400%" height="400%" color-interpolation-filters="sRGB">
        <feGaussianBlur in="SourceGraphic" stdDeviation="7.5 0" result="blur"></feGaussianBlur>
        <feDropShadow stdDeviation="12.307692307692308" in="blur" dx="-10" dy="-10" flood-color="hsl(331, 90%, 56%)" flood-opacity="0.25" x="0%" y="0%" width="100%" height="100%"></feDropShadow>
      </filter><linearGradient gradientTransform="rotate(0, 0.5, 0.5)" x1="50%" y1="0%" x2="50%" y2="100%" id="uuunion-grad"><stop stop-color="hsl(206, 75%, 49%)" offset="10%"></stop><stop stop-color="hsl(331, 90%, 56%)" offset="90%"></stop></linearGradient><linearGradient gradientTransform="rotate(135, 0.5, 0.5)" x1="50%" y1="0%" x2="50%" y2="100%" id="uuunion-grad2"><stop stop-color="hsl(206, 75%, 49%)" offset="25%"></stop><stop stop-color="hsl(331, 90%, 56%)" offset="100%"></stop></linearGradient><linearGradient gradientTransform="rotate(333, 0.5, 0.5)" x1="50%" y1="0%" x2="50%" y2="100%" id="uuunion-grad3"><stop stop-color="hsl(206, 75%, 49%)" offset="0%"></stop><stop stop-color="hsl(331, 90%, 56%)" offset="75%"></stop></linearGradient></defs><path d="M-131.78 -81.1Q-118.78 -84.64 -105.78 -87.33 -92.79 -88.69 -79.79 -88.46 -66.79 -86.7 -53.8 -83.71 -40.8 -80.05 -27.8 -76.37 -14.81 -73.36 -1.81 -71.55 11.18 -71.29 24.17 -72.6 37.17 -75.27 50.17 -78.79 63.16 -82.54 76.16 -85.82 89.16 -88.04 102.16 -88.79 115.15 -87.95 128.15 -85.65 141.15 -82.33 154.14 -78.58 167.14 -75.09 180.14 -72.49 193.13 -71.26 206.13 -71.62 219.13 -73.5 232.12 -76.57 245.12 -80.26 258.12 -83.9 271.12 -86.84 284.11 -88.52 297.11 -88.65 310.11 -87.21 323.1 -84.45 336.1 -80.88 349.1 -77.15 362.09 -73.94 375.09 -71.83 388.09 -71.21 401.08 -72.18 414.08 -74.58 427.08 -77.97 440.08 -81.72 453.07 -85.16 466.07 -87.66 479.07 -88.76 492.06 -88.27 505.06 -86.27 518.06 -83.13 531.05 -79.41 544.05 -75.8 557.05 -72.96 570.04 -71.4 583.04 -71.4 596.04 -72.97 609.04 -75.81 622.03 -79.42 635.03 -83.14 648.03 -86.28 661.02 -88.27 674.02 -88.76 687.02 -87.66 700.01 -85.15 713.01 -81.71 726.01 -77.96 739.01 -74.57 752 -72.18 765 -71.2 778 -71.83 790.99 -73.95 803.99 -77.16 816.99 -80.89 829.98 -84.46 842.98 -87.22 855.98 -88.66 868.97 -88.52 881.97 -86.83 894.97 -83.89 907.97 -80.25 920.96 -76.56 933.96 -73.49 946.96 -71.61 959.95 -71.26 972.95 -72.49 985.95 -75.1 998.94 -78.59 1011.94 -82.34 1024.94 -85.66 1037.94 -87.95 1050.93 -88.79 1063.93 -88.03 1076.93 -85.81 1089.92 -82.52 1102.92 -78.78 1115.92 -75.26 1128.91 -72.6 1141.91 -71.28 1154.91 -71.56 1167.91 -73.37 1180.9 -76.38 1193.9 -80.06 1206.9 -83.72 1219.89 -86.71 1232.89 -88.47 1245.89 -88.69 1258.88 -87.32 1271.88 -84.63 1284.88 -81.09 1297.88 -77.35 1310.87 -74.09 1323.87 -71.91 1336.87 -71.2 1349.86 -72.09 1362.86 -74.42 1375.86 -77.77 1388.85 -81.52 1401.85 -85 1414.85 -87.56 1427.85 -88.75 1440.84 -88.34 1453.84 -86.41 1466.84 -83.31 1479.83 -79.61 1492.83 -75.98 1505.83 -73.08 1518.82 -71.44 1531.82 -71.36 1535.11 -56.14 1540.03 -40.92 1546.32 -25.7 1553.61 -10.47 1561.51 4.74 1569.55 19.96 1577.3 35.18 1584.3 50.4 1590.17 65.62 1594.57 80.84 1597.26 96.06 1598.09 111.28 1597 126.5 1594.06 141.72 1589.44 156.94 1583.39 172.17 1576.26 187.39 1568.45 202.61 1560.39 217.83 1552.56 233.05 1545.38 248.27 1539.26 263.49 1534.55 278.71 1531.51 293.93 1530.31 309.15 1531.03 324.37 1533.62 339.6 1537.93 354.82 1543.73 370.04 1550.68 385.26 1558.39 400.48 1566.43 415.7 1574.35 430.92 1581.69 446.14 1588.04 461.36 1593.05 476.58 1596.43 491.8 1597.99 507.02 1597.65 522.25 1595.42 537.47 1591.42 552.69 1585.89 567.91 1579.14 583.13 1571.54 598.35 1563.53 613.57 1555.55 628.79 1548.07 644.01 1541.49 659.23 1536.2 674.45 1532.48 689.67 1530.55 704.9 1530.52 720.12 1532.4 735.34 1536.06 750.56 1541.31 765.78 1547.86 781 1555.32 796.22 1563.29 811.44 1571.31 826.66 1578.92 841.88 1585.71 857.1 1591.28 872.32 1589.63 895.04 1570.26 898.22 1556.58 890.57 1542.9 881 1529.23 871.24 1515.55 863.08 1501.88 858 1488.2 856.93 1474.52 860.05 1460.85 866.81 1447.17 875.97 1433.49 885.86 1419.82 894.68 1406.14 900.83 1392.47 903.19 1378.79 901.32 1365.11 895.57 1351.44 886.98 1337.76 877.12 1324.09 867.79 1310.41 860.67 1296.73 857.08 1283.06 857.66 1269.38 862.3 1255.7 870.17 1242.03 879.83 1228.35 889.52 1214.68 897.47 1201 902.24 1187.32 902.96 1173.65 899.5 1159.97 892.48 1146.29 883.2 1132.62 873.33 1118.94 864.67 1105.27 858.8 1091.59 856.8 1077.91 859.01 1064.24 865.05 1050.56 873.81 1036.89 883.7 1023.21 892.91 1009.53 899.77 995.86 903.03 982.18 902.09 968.5 897.13 954.83 889.05 941.15 879.32 927.48 869.72 913.8 861.98 900.12 857.53 886.45 857.16 872.77 860.96 859.1 868.22 845.42 877.62 831.74 887.46 818.07 895.94 804.39 901.51 790.71 903.17 777.04 900.61 763.36 894.29 749.69 885.37 736.01 875.47 722.33 866.39 708.66 859.8 694.98 856.88 681.31 858.17 667.63 863.43 653.95 871.71 640.28 881.5 626.6 891.02 612.92 898.52 599.25 902.66 585.57 902.66 571.9 898.54 558.22 891.04 544.54 881.53 530.87 871.74 517.19 863.45 503.52 858.18 489.84 856.87 476.16 859.78 462.49 866.37 448.81 875.44 435.14 885.34 421.46 894.26 407.78 900.59 394.11 903.17 380.43 901.53 366.75 895.96 353.08 887.49 339.4 877.65 325.73 868.24 312.05 860.97 298.37 857.17 284.7 857.52 271.02 861.96 257.35 869.69 243.67 879.29 229.99 889.02 216.32 897.11 202.64 902.08 188.97 903.03 175.29 899.78 161.61 892.93 147.94 883.73 134.26 873.84 120.59 865.08 106.91 859.03 93.23 856.8 79.56 858.79 65.88 864.65 52.2 873.3 38.53 883.17 24.85 892.46 11.18 899.48 -2.49 902.96 -16.17 902.25 -29.84 897.49 -43.52 889.55 -57.19 879.86 -70.87 870.2 -84.55 862.33 -98.22 857.67 -111.9 857.07 -125.57 860.65 -145.72 864.94 -150.89 847.14 -149.1 832.17 -146.92 817.2 -144.47 802.23 -141.89 787.26 -139.33 772.29 -136.93 757.31 -134.83 742.34 -133.14 727.37 -131.96 712.4 -131.36 697.43 -131.37 682.45 -131.99 667.48 -133.18 652.51 -134.89 637.54 -137 622.57 -139.41 607.6 -141.97 592.62 -144.55 577.65 -146.99 562.68 -149.16 547.71 -150.94 532.74 -152.22 517.76 -152.94 502.79 -153.05 487.82 -152.55 472.85 -151.46 457.88 -149.85 442.91 -147.81 427.93 -145.45 412.96 -142.9 397.99 -140.32 383.02 -137.84 368.05 -135.61 353.08 -133.74 338.1 -132.36 323.13 -131.52 308.16 -131.29 293.19 -131.68 278.22 -132.65 263.24 -134.17 248.27 -136.14 233.3 -138.44 218.33 -140.96 203.36 -143.55 188.39 -146.06 173.41 -148.35 158.44 -150.3 143.47 -151.79 128.5 -152.73 113.53 -153.08 98.55 -152.81 83.58 -151.95 68.61 -150.53 53.64 -148.65 38.67 -146.4 23.7 -143.91 8.72 -141.32 -6.24 -138.78 -21.21 -136.44 -36.18 -134.42 -51.15 -132.83 -66.13 -131.78 -81.1" fill="url(#uuunion-grad)"></path><path d="M-131.79 -81.09Q-132.84 -66.12 -134.43 -51.15 -136.45 -36.18 -138.79 -21.21 -141.33 -6.24 -143.92 8.73 -146.41 23.7 -148.66 38.67 -150.54 53.64 -151.96 68.61 -152.83 83.59 -153.09 98.56 -152.74 113.53 -151.8 128.5 -150.31 143.47 -148.36 158.45 -146.07 173.42 -143.56 188.39 -140.97 203.36 -138.45 218.33 -136.15 233.3 -134.18 248.28 -132.66 263.25 -131.69 278.22 -131.3 293.19 -131.53 308.16 -132.37 323.14 -133.75 338.11 -135.62 353.08 -137.85 368.05 -126.69 387.48 -107.3 384.7 -98.4 384 -89.5 384.59 -80.59 386.45 -71.69 389.41 -62.79 393.24 -53.88 397.61 -44.98 402.19 -36.08 406.58 -27.18 410.43 -18.27 413.44 -1.45 415.81 1.52 415.96 12.97 411.42 24.39 405.05 35.78 397.27 47.15 388.68 58.48 379.97 69.78 371.85 81.05 364.95 92.29 359.73 103.5 356.45 114.67 355.12 125.82 355.51 136.94 357.15 148.02 359.43 159.08 361.68 170.11 363.2 181.12 363.43 192.09 361.93 203.05 358.53 213.98 353.26 224.89 346.4 235.78 338.44 246.65 330 257.51 321.75 268.35 314.34 279.17 308.29 289.99 303.99 300.8 301.55 311.6 300.89 322.4 301.68 333.19 303.41 343.99 305.47 354.78 307.2 365.58 307.99 376.39 307.35 387.2 304.98 398.03 300.78 408.86 294.92 419.71 287.74 430.58 279.76 441.47 271.62 452.38 263.93 463.31 257.27 474.26 252.09 485.24 248.63 496.24 246.92 507.28 246.78 518.34 247.81 529.43 249.48 540.56 251.19 551.72 252.32 562.91 252.33 574.14 250.85 585.4 247.66 596.7 242.8 608.04 236.49 619.4 229.15 630.81 221.31 642.25 213.57 653.73 206.52 665.24 200.65 676.78 196.29 688.36 193.59 699.97 192.49 711.61 192.71 723.28 193.83 734.98 195.31 746.7 196.55 758.45 197.01 770.23 196.24 782.02 193.96 793.84 190.07 805.67 184.67 817.52 178.07 829.37 170.71 841.24 163.13 853.12 155.91 865 149.54 876.89 144.44 888.77 140.85 900.65 138.8 912.52 138.17 924.38 138.61 936.23 139.67 948.07 140.82 959.88 141.52 971.68 141.29 983.45 139.76 995.2 136.75 1006.91 132.26 1018.59 126.47 1030.24 119.72 1041.84 112.48 1053.41 105.28 1064.93 98.63 1076.41 92.97 1087.83 88.6 1099.21 85.69 1110.53 84.19 1121.8 83.88 1133.01 84.39 1144.17 85.27 1155.26 86 1166.29 86.1 1177.26 85.17 1188.17 82.93 1199.01 79.29 1209.78 74.32 1220.49 68.27 1231.14 61.52 1241.72 54.52 1252.23 47.78 1262.68 41.74 1273.06 36.77 1283.37 33.09 1293.63 30.76 1303.82 29.67 1313.95 29.54 1324.03 30 1334.04 30.58 1344 30.82 1353.91 30.3 1363.76 28.68 1373.57 25.8 1383.34 21.64 1393.06 16.32 1402.74 10.16 1412.38 3.52 1422 -3.12 1413.72 -20.54 1406.09 -37.96 1399.67 -55.37 1394.96 -72.79 1392.33 -90.21 1391.97 -107.63 1389.93 -132.21 1373.9 -136.37 1361.84 -133.94 1349.79 -132.45 1337.73 -132.13 1325.68 -133.04 1313.62 -135.03 1301.56 -137.8 1289.51 -140.9 1277.45 -143.87 1265.4 -146.23 1253.34 -147.62 1241.29 -147.83 1229.23 -146.81 1217.18 -144.73 1205.12 -141.92 1193.06 -138.81 1181.01 -135.88 1168.95 -133.59 1156.9 -132.3 1144.84 -132.21 1132.79 -133.33 1120.73 -135.49 1108.68 -138.35 1096.62 -141.46 1084.57 -144.35 1072.51 -146.56 1060.45 -147.75 1048.4 -147.73 1036.34 -146.51 1024.29 -144.27 1012.23 -141.37 1000.18 -138.25 988.12 -135.41 976.07 -133.28 964.01 -132.19 951.96 -132.32 939.9 -133.65 927.84 -135.96 915.79 -138.9 903.73 -142.01 891.68 -144.81 879.62 -146.86 867.57 -147.84 855.51 -147.6 843.46 -146.17 831.4 -143.78 819.35 -140.81 807.29 -137.7 795.23 -134.96 783.18 -133 771.12 -132.12 759.07 -132.48 747.01 -134 734.96 -136.46 722.9 -139.47 710.85 -142.56 698.79 -145.25 686.73 -147.12 674.68 -147.89 662.62 -147.42 650.57 -145.8 638.51 -143.28 626.46 -140.24 614.4 -137.17 602.35 -134.53 590.29 -132.75 578.24 -132.1 566.18 -132.67 554.12 -134.38 542.07 -136.97 530.01 -140.03 517.96 -143.08 505.9 -145.66 493.85 -147.35 481.79 -147.89 469.74 -147.21 457.68 -145.4 445.63 -142.75 433.57 -139.68 421.51 -136.65 409.46 -134.14 397.4 -132.54 385.35 -132.11 373.29 -132.9 361.24 -134.8 349.18 -137.5 337.13 -140.6 325.07 -143.6 313.01 -146.04 300.96 -147.54 288.9 -147.86 276.85 -146.96 264.79 -144.98 252.74 -142.22 240.68 -139.11 228.63 -136.14 216.57 -133.78 204.52 -132.38 192.46 -132.16 180.4 -133.17 168.35 -135.24 156.29 -138.05 144.24 -141.16 132.18 -144.09 120.13 -146.39 108.07 -147.68 96.02 -147.79 83.96 -146.68 71.91 -144.52 59.85 -141.67 47.79 -138.55 35.74 -135.66 23.68 -133.44 11.63 -132.25 -0.42 -132.26 -12.47 -133.47 -24.53 -135.7 -36.58 -138.6 -48.64 -141.72 -60.7 -144.56 -72.75 -146.7 -84.81 -147.79 -96.86 -147.67 -108.92 -146.36 -120.97 -144.05 -133.03 -141.11 -145.08 -138 -140.85 -123.7 -137.21 -109.45 -134.19 -95.25 -131.79 -81.09" fill="url(#uuunion-grad2)" filter="url(#uuunion-blur)"></path><path d="M1393.84 315.37Q1402.51 311.58 1411.18 308.48 1428.52 305.88 1445.86 306.78 1454.53 309.21 1463.2 312.51 1471.87 316.43 1480.54 320.63 1489.21 324.79 1497.88 328.55 1506.55 331.62 1515.22 333.73 1523.89 334.73 1532.56 334.52 1537.1 352.28 1543.73 370.04 1551.92 387.79 1561.06 405.55 1570.43 423.31 1579.33 441.07 1587.07 458.82 1593.05 476.58 1596.82 494.34 1598.09 512.1 1596.76 529.86 1592.94 547.61 1586.91 565.37 1579.14 583.13 1570.22 600.89 1560.84 618.64 1551.72 636.4 1543.56 654.16 1536.98 671.92 1532.48 689.67 1530.41 707.43 1530.94 725.19 1534.02 742.95 1539.4 760.7 1546.69 778.46 1555.32 796.22 1564.64 813.98 1573.91 831.74 1582.45 849.49 1589.58 867.25 1594.77 885.01 1597.61 902.77 1585.06 902.72 1572.52 899.19 1559.98 892.71 1547.43 884.28 1534.89 875.18 1522.34 866.83 1509.8 860.5 1497.25 857.16 1484.71 857.33 1472.16 860.98 1459.62 867.55 1447.07 876.04 1434.53 885.12 1421.99 893.43 1409.44 899.66 1396.9 902.88 1384.35 902.58 1371.81 898.82 1359.26 892.16 1346.72 883.63 1334.17 874.55 1321.63 866.3 1309.08 860.15 1296.54 857.06 1284 857.48 1271.45 861.37 1258.91 868.11 1246.36 876.68 1233.82 885.76 1221.27 893.95 1208.73 900 1196.18 902.98 1183.64 902.43 1171.09 898.43 1158.55 891.6 1146.01 882.99 1133.46 873.92 1120.92 865.78 1108.37 859.82 1095.83 856.97 1083.28 857.65 1070.74 861.76 1058.19 868.67 1045.65 877.33 1033.1 886.39 1020.56 894.47 1008.02 900.32 995.47 903.06 982.93 902.25 970.38 898.03 957.84 891.03 945.29 882.34 932.75 873.29 920.2 865.27 907.66 859.51 895.11 856.9 882.57 857.83 870.03 862.17 857.48 869.25 844.94 877.97 832.39 887.01 819.85 894.97 807.3 900.63 794.76 903.12 782.21 902.06 769.67 897.61 757.12 890.45 744.58 881.69 732.04 872.67 719.49 864.77 706.95 859.21 694.4 856.85 681.86 858.03 669.31 862.6 656.77 869.83 644.22 878.63 631.68 887.63 619.13 895.46 606.59 900.92 594.05 903.16 581.5 901.85 568.96 897.18 556.41 889.87 543.87 881.04 531.32 872.05 518.78 864.29 506.23 858.93 493.69 856.81 481.14 858.25 468.6 863.03 456.06 870.42 443.51 879.28 430.97 888.24 418.42 895.94 405.88 901.19 393.33 903.19 380.79 901.62 368.24 896.73 355.7 889.27 343.15 880.39 330.61 871.44 318.07 863.81 305.52 858.67 292.98 856.8 280.43 858.49 267.89 863.49 255.34 871.02 242.8 879.93 230.25 888.85 217.71 896.41 205.16 901.45 192.62 903.19 180.08 901.38 167.53 896.27 154.99 888.67 142.44 879.74 129.9 870.84 117.35 863.35 104.81 858.42 92.26 856.8 79.72 858.74 67.17 863.95 54.63 871.62 42.09 880.58 29.54 889.45 17 896.86 -1.67 897.36 -7.35 882.88 -6.74 872.73 -5.98 862.58 -5.1 852.43 -4.12 842.28 -2.25 827.06 -0.94 822 12.27 813.89 25.43 802.59 38.51 788.92 51.53 774.08 64.46 759.47 77.32 746.41 90.09 735.98 102.78 728.82 115.4 725.05 127.94 724.25 140.41 725.51 152.81 727.62 165.15 729.24 177.44 729.11 189.69 726.27 201.9 720.2 214.08 710.91 226.25 698.9 238.41 685.12 250.57 670.79 262.75 657.21 274.95 645.54 287.17 636.63 299.44 630.87 311.75 628.17 324.12 627.92 336.54 629.14 349.03 630.62 361.59 631.14 374.21 629.61 386.9 625.3 399.67 617.93 412.5 607.71 425.39 595.29 438.35 581.7 451.36 568.1 464.42 555.68 477.52 545.41 490.65 537.9 503.81 533.34 516.98 531.42 530.15 531.42 543.31 532.32 556.45 532.98 569.55 532.29 582.61 529.39 595.62 523.75 608.55 515.31 621.41 504.45 634.18 491.93 646.85 478.77 659.41 466.08 671.86 454.89 684.19 445.95 696.4 439.69 708.49 436.07 720.45 434.64 732.28 434.61 743.99 434.97 755.59 434.66 767.07 432.74 778.44 428.54 789.72 421.75 800.91 412.5 810.36 407.55 819.81 401.75 829.25 395.55 838.67 389.43 848.09 383.86 857.49 379.27 866.89 375.97 876.28 374.16 885.65 373.89 895.02 375.07 904.38 377.46 913.73 380.69 923.07 384.33 932.4 387.9 941.72 390.93 951.04 393.01 960.34 393.82 969.64 393.15 978.93 390.96 988.22 387.33 997.5 382.51 1006.77 376.85 1016.03 370.77 1025.29 364.75 1034.54 359.25 1043.78 354.69 1053.02 351.38 1062.26 349.53 1071.48 349.18 1080.71 350.24 1089.93 352.5 1099.14 355.6 1108.36 359.11 1117.56 362.58 1126.77 365.54 1135.97 367.59 1145.17 368.4 1154.37 367.78 1163.56 365.67 1172.76 362.16 1181.95 357.47 1191.14 351.93 1200.33 345.98 1209.52 340.06 1218.71 334.64 1227.9 330.11 1237.09 326.8 1246.29 324.9 1255.48 324.47 1264.68 325.42 1273.88 327.55 1283.08 330.52 1292.28 333.91 1301.49 337.27 1310.7 340.16 1319.92 342.17 1329.14 342.98 1338.37 342.41 1347.6 340.38 1356.83 336.97 1366.07 332.41 1375.32 327.01 1384.58 321.18 1393.84 315.37" fill="url(#uuunion-grad3)" filter="url(#uuunion-blur2)"></path></svg>